<svg xmlns="http://www.w3.org/2000/svg" viewBox="0 0 512 512" width="512" height="512" role="img" aria-label="Ludo Atlas logo">
<title>Ludo Atlas</title>
<defs>
<linearGradient id="g-body" x1="0" y1="0" x2="0" y2="1"><stop offset="0" stop-color="#8AF49E"/><stop offset="0.5" stop-color="#4FDC60"/><stop offset="1" stop-color="#2FB84A"/></linearGradient>
<radialGradient id="g-glow" cx="0.5" cy="0.5" r="0.5"><stop offset="0" stop-color="#63E676" stop-opacity="0.38"/><stop offset="1" stop-color="#63E676" stop-opacity="0"/></radialGradient>
<clipPath id="c-body"><path d="M256 112 C146 112 82 206 82 322 C82 382 108 416 158 422 L354 422 C402 416 428 382 428 322 C428 206 362 112 256 112 Z"/></clipPath>
<path id="p-star" d="M0 -18 C2.4 -4.8 4.8 -2.4 18 0 C4.8 2.4 2.4 4.8 0 18 C-2.4 4.8 -4.8 2.4 -18 0 C-4.8 -2.4 -2.4 -4.8 0 -18 Z"/>
</defs>
<circle cx="256" cy="288" r="214" fill="url(#g-glow)"/>
<path d="M256 112 C146 112 82 206 82 322 C82 382 108 416 158 422 L354 422 C402 416 428 382 428 322 C428 206 362 112 256 112 Z" fill="url(#g-body)"/>
<g clip-path="url(#c-body)">
<ellipse cx="256" cy="474" rx="240" ry="62" fill="#1E8A38" opacity="0.42"/>
<ellipse cx="200" cy="162" rx="150" ry="62" fill="#C8FFD2" opacity="0.30"/>
</g>
<ellipse cx="256" cy="150" rx="94" ry="30" fill="#FFFFFF" opacity="0.18"/>
<path d="M164 258 C152 208 176 172 218 162" stroke="#FFFFFF" stroke-width="28" stroke-linecap="round" fill="none" opacity="0.4"/>
<circle cx="184" cy="194" r="9" fill="#FFFFFF" opacity="0.9"/>
<ellipse cx="368" cy="298" rx="20" ry="42" fill="#FFFFFF" opacity="0.16" transform="rotate(18 368 298)"/>
<ellipse cx="152" cy="318" rx="25" ry="13" fill="#FF9FB5" opacity="0.9"/>
<ellipse cx="360" cy="318" rx="25" ry="13" fill="#FF9FB5" opacity="0.9"/>
<circle cx="198" cy="276" r="26" fill="#17301E"/><circle cx="314" cy="276" r="26" fill="#17301E"/>
<circle cx="189" cy="267" r="7.5" fill="#FFFFFF"/><circle cx="203" cy="282" r="3.8" fill="#FFFFFF" opacity="0.92"/>
<circle cx="305" cy="267" r="7.5" fill="#FFFFFF"/><circle cx="319" cy="282" r="3.8" fill="#FFFFFF" opacity="0.92"/>
<path d="M232 322 Q256 346 280 322" fill="none" stroke="#17301E" stroke-width="11" stroke-linecap="round"/>
<use href="#p-star" transform="translate(256 56) scale(0.85)" fill="#FFD75E" opacity="0.95"/>
<use href="#p-star" transform="translate(110 92) scale(1.1)" fill="#FFD75E" opacity="0.95"/>
<use href="#p-star" transform="translate(404 168) scale(0.7)" fill="#FFD75E" opacity="0.9"/>
<use href="#p-star" transform="translate(86 336) scale(0.45)" fill="#FFD75E" opacity="0.85"/>
<circle cx="426" cy="252" r="6" fill="#FFD75E" opacity="0.8"/>
<use href="#p-star" transform="translate(392 244) scale(0.4)" fill="#FFFFFF" opacity="0.85"/>
</svg>
